# xmcd
#
# Track frame offsets: 
#        182
#        17037
#        30422
#        41665
#        54957
#        72227
#        89307
#        102120
#        123180
#        134232
#        148095
#        161167
#
# Disc length: 2322 seconds
#
# Revision: 2
# Processed by: cddbd v1.5.1PL0 Copyright (c) Steve Scherf et al.
# Submitted via: ExactAudioCopy v0.95b3
#
DISCID=a309100c
DTITLE=Tish Hinojosa - Taos to Tennesse
DYEAR=1992
DGENRE=
TTITLE0=Midnight Moonlight
TTITLE1=Prairie Moon
TTITLE2=According to My Heart
TTITLE3=Taos to Tennessee
TTITLE4=River
TTITLE5=Amanecer
TTITLE6=Please Be With Me
TTITLE7=Crazy Wind and Flashing Yellows
TTITLE8=The Highway Calls
TTITLE9=Who Showed You the Way to My Heart
TTITLE10=Let Me Remember
TTITLE11=Always
EXTD=
EXTT0=
EXTT1=
EXTT2=
EXTT3=
EXTT4=
EXTT5=
EXTT6=
EXTT7=
EXTT8=
EXTT9=
EXTT10=
EXTT11=
PLAYORDER=
